<svg width="1244" height="1118" viewBox="0 0 1244 1118" fill="none" xmlns="http://www.w3.org/2000/svg">
<rect width="1244" height="1118" fill="white"/>
<rect x="80" y="57" width="1084" height="1004.03" rx="151" fill="#FFA216"/>
<path d="M567.666 586.167C579.333 601.764 594.218 614.67 611.311 624.009C628.404 633.347 647.305 638.901 666.733 640.292C686.161 641.684 705.661 638.88 723.911 632.073C742.16 625.265 758.732 614.613 772.503 600.837L854.003 519.337C878.746 493.719 892.437 459.407 892.128 423.792C891.818 388.177 877.533 354.108 852.348 328.923C827.163 303.739 793.095 289.453 757.48 289.144C721.865 288.834 687.553 302.526 661.934 327.269L615.208 373.724" stroke="white" stroke-width="80" stroke-linecap="round" stroke-linejoin="round"/>
<path d="M676.334 531.833C664.667 516.236 649.782 503.331 632.689 493.992C615.596 484.653 596.695 479.1 577.267 477.708C557.839 476.317 538.339 479.12 520.089 485.928C501.84 492.735 485.268 503.388 471.497 517.163L389.997 598.663C365.254 624.282 351.563 658.594 351.872 694.209C352.182 729.824 366.467 763.893 391.652 789.077C416.836 814.262 450.905 828.547 486.52 828.857C522.135 829.166 556.447 815.475 582.066 790.732L628.521 744.277" stroke="white" stroke-width="80" stroke-linecap="round" stroke-linejoin="round"/>
</svg>
